<svg width="222" height="229" viewBox="0 0 222 229" fill="none" xmlns="http://www.w3.org/2000/svg">
<path d="M37.212 68C37.212 68 2.71214 114.5 45.2116 164C87.711 213.5 132.712 195.5 132.712 195.5" stroke="white" stroke-width="10"/>
<circle cx="49.2119" cy="54" r="18" stroke="#9548D1" stroke-width="8"/>
<circle cx="143.212" cy="190" r="11.5" stroke="#059E83" stroke-width="7"/>
<circle cx="112.212" cy="32" r="8" fill="white"/>
<circle cx="148.212" cy="40" r="7.5" stroke="white" stroke-width="5"/>
<circle cx="177.212" cy="66" r="7.5" stroke="#9548D1" stroke-width="5"/>
<circle cx="187.212" cy="101" r="10" fill="#059E83"/>
<circle cx="181.212" cy="138" r="9" fill="#9548D1"/>
<path d="M147.212 92L173.212 70" stroke="#9548D1" stroke-width="6"/>
<path d="M124.794 113.012C122.868 111.033 119.702 110.991 117.724 112.918C115.745 114.844 115.703 118.01 117.63 119.988L124.794 113.012ZM87.7116 139.5C90.1486 135.134 90.1505 135.135 90.1525 135.136C90.153 135.137 90.1548 135.138 90.1559 135.138C90.158 135.139 90.1598 135.14 90.1613 135.141C90.1643 135.143 90.166 135.144 90.1665 135.144C90.1674 135.145 90.1635 135.142 90.1548 135.137C90.1374 135.127 90.101 135.106 90.0472 135.074C89.9394 135.009 89.7622 134.9 89.5271 134.747C89.0559 134.44 88.3576 133.96 87.5226 133.309C85.8422 131.997 83.6675 130.036 81.6722 127.448C77.7485 122.357 74.5173 114.896 77.063 104.713L67.3615 102.287C63.9076 116.104 68.426 126.643 73.752 133.552C76.3814 136.964 79.2065 139.503 81.3697 141.192C82.4565 142.04 83.3909 142.685 84.072 143.128C84.413 143.35 84.6919 143.522 84.8961 143.645C84.9983 143.706 85.0819 143.756 85.1455 143.792C85.1773 143.811 85.2041 143.826 85.2257 143.838C85.2365 143.844 85.246 143.85 85.2542 143.854C85.2582 143.857 85.262 143.859 85.2654 143.861C85.2671 143.862 85.2695 143.863 85.2703 143.864C85.2726 143.865 85.2747 143.866 87.7116 139.5ZM77.063 104.713C82.3769 83.4557 101.556 73.584 119.838 78.8076L122.586 69.1924C98.8687 62.4161 74.047 75.5443 67.3615 102.287L77.063 104.713ZM119.838 78.8076C128.94 81.408 139.191 89.6435 145.6 98.9071C148.776 103.499 150.73 107.952 151.282 111.652C151.817 115.237 151.021 117.689 149.246 119.396L156.177 126.604C160.902 122.061 162.044 116.013 161.172 110.176C160.318 104.454 157.522 98.5635 153.824 93.2178C146.482 82.6064 134.484 72.592 122.586 69.1924L119.838 78.8076ZM149.246 119.396C145.087 123.395 139.947 122.833 134.359 119.983C131.655 118.605 129.241 116.851 127.473 115.404C126.599 114.689 125.906 114.068 125.441 113.634C125.209 113.418 125.035 113.25 124.925 113.142C124.87 113.088 124.831 113.049 124.809 113.027C124.798 113.016 124.791 113.009 124.789 113.006C124.788 113.005 124.787 113.005 124.788 113.006C124.789 113.006 124.79 113.007 124.791 113.008C124.791 113.009 124.792 113.01 124.792 113.01C124.793 113.011 124.794 113.012 121.212 116.5C117.63 119.988 117.631 119.989 117.632 119.991C117.633 119.991 117.634 119.993 117.635 119.994C117.637 119.996 117.64 119.998 117.642 120.001C117.648 120.007 117.654 120.013 117.662 120.021C117.677 120.037 117.697 120.057 117.722 120.081C117.77 120.13 117.837 120.197 117.921 120.279C118.088 120.443 118.324 120.671 118.623 120.95C119.221 121.507 120.075 122.272 121.139 123.143C123.246 124.867 126.269 127.083 129.815 128.892C136.727 132.417 147.336 135.105 156.177 126.604L149.246 119.396Z" fill="#059E83"/>
<circle cx="97.2119" cy="147" r="11.5" stroke="white" stroke-width="7"/>
</svg>
