<svg width="833" height="229" viewBox="0 0 833 229" fill="none" xmlns="http://www.w3.org/2000/svg">
<path d="M37.212 68C37.212 68 2.71214 114.5 45.2116 164C87.711 213.5 132.712 195.5 132.712 195.5" stroke="white" stroke-width="10"/>
<circle cx="49.2119" cy="54" r="18" stroke="#9548D1" stroke-width="8"/>
<circle cx="143.212" cy="190" r="11.5" stroke="#059E83" stroke-width="7"/>
<circle cx="112.212" cy="32" r="8" fill="white"/>
<circle cx="148.212" cy="40" r="7.5" stroke="white" stroke-width="5"/>
<circle cx="177.212" cy="66" r="7.5" stroke="#9548D1" stroke-width="5"/>
<circle cx="187.212" cy="101" r="10" fill="#059E83"/>
<circle cx="181.212" cy="138" r="9" fill="#9548D1"/>
<path d="M147.212 92L173.212 70" stroke="#9548D1" stroke-width="6"/>
<path d="M124.794 113.012C122.868 111.033 119.702 110.991 117.724 112.918C115.745 114.844 115.703 118.01 117.63 119.988L124.794 113.012ZM87.7116 139.5C90.1486 135.134 90.1505 135.135 90.1525 135.136C90.153 135.137 90.1548 135.138 90.1559 135.138C90.158 135.139 90.1598 135.14 90.1613 135.141C90.1643 135.143 90.166 135.144 90.1665 135.144C90.1674 135.145 90.1635 135.142 90.1548 135.137C90.1374 135.127 90.101 135.106 90.0472 135.074C89.9394 135.009 89.7622 134.9 89.5271 134.747C89.0559 134.44 88.3576 133.96 87.5226 133.309C85.8422 131.997 83.6675 130.036 81.6722 127.448C77.7485 122.357 74.5173 114.896 77.063 104.713L67.3615 102.287C63.9076 116.104 68.426 126.643 73.752 133.552C76.3814 136.964 79.2065 139.503 81.3697 141.192C82.4565 142.04 83.3909 142.685 84.072 143.128C84.413 143.35 84.6919 143.522 84.8961 143.645C84.9983 143.706 85.0819 143.756 85.1455 143.792C85.1773 143.811 85.2041 143.826 85.2257 143.838C85.2365 143.844 85.246 143.85 85.2542 143.854C85.2582 143.857 85.262 143.859 85.2654 143.861C85.2671 143.862 85.2695 143.863 85.2703 143.864C85.2726 143.865 85.2747 143.866 87.7116 139.5ZM77.063 104.713C82.3769 83.4557 101.556 73.584 119.838 78.8076L122.586 69.1924C98.8687 62.4161 74.047 75.5443 67.3615 102.287L77.063 104.713ZM119.838 78.8076C128.94 81.408 139.191 89.6435 145.6 98.9071C148.776 103.499 150.73 107.952 151.282 111.652C151.817 115.237 151.021 117.689 149.246 119.396L156.177 126.604C160.902 122.061 162.044 116.013 161.172 110.176C160.318 104.454 157.522 98.5635 153.824 93.2178C146.482 82.6064 134.484 72.592 122.586 69.1924L119.838 78.8076ZM149.246 119.396C145.087 123.395 139.947 122.833 134.359 119.983C131.655 118.605 129.241 116.851 127.473 115.404C126.599 114.689 125.906 114.068 125.441 113.634C125.209 113.418 125.035 113.25 124.925 113.142C124.87 113.088 124.831 113.049 124.809 113.027C124.798 113.016 124.791 113.009 124.789 113.006C124.788 113.005 124.787 113.005 124.788 113.006C124.789 113.006 124.79 113.007 124.791 113.008C124.791 113.009 124.792 113.01 124.792 113.01C124.793 113.011 124.794 113.012 121.212 116.5C117.63 119.988 117.631 119.989 117.632 119.991C117.633 119.991 117.634 119.993 117.635 119.994C117.637 119.996 117.64 119.998 117.642 120.001C117.648 120.007 117.654 120.013 117.662 120.021C117.677 120.037 117.697 120.057 117.722 120.081C117.77 120.13 117.837 120.197 117.921 120.279C118.088 120.443 118.324 120.671 118.623 120.95C119.221 121.507 120.075 122.272 121.139 123.143C123.246 124.867 126.269 127.083 129.815 128.892C136.727 132.417 147.336 135.105 156.177 126.604L149.246 119.396Z" fill="#059E83"/>
<circle cx="97.2119" cy="147" r="11.5" stroke="white" stroke-width="7"/>
<path d="M258.012 102.5C256.22 102.5 254.599 101.903 253.148 100.708C251.697 99.428 250.972 97.6787 250.972 95.46V57.956C250.972 55.9933 251.612 54.4147 252.892 53.22C254.257 51.94 255.836 51.3 257.628 51.3H269.66C273.671 51.3 277.212 52.4093 280.284 54.628C283.356 56.7613 284.892 59.8333 284.892 63.844C284.892 65.9773 284.423 67.9827 283.484 69.86C282.631 71.652 281.479 73.0173 280.028 73.956C282.503 74.8093 284.465 76.388 285.916 78.692C287.367 80.9107 288.092 83.556 288.092 86.628C288.092 91.748 286.556 95.6733 283.484 98.404C280.412 101.135 276.572 102.5 271.964 102.5H258.012ZM263.004 94.692H271.964C274.695 94.692 276.657 93.8813 277.852 92.26C279.132 90.5533 279.772 88.7187 279.772 86.756C279.772 84.964 279.175 83.2573 277.98 81.636C276.785 80.0147 274.951 79.204 272.476 79.204H262.492C260.615 79.204 259.676 80.1853 259.676 82.148V91.364C259.676 93.5827 260.785 94.692 263.004 94.692ZM262.492 72.036H269.916C272.049 72.036 273.671 71.3107 274.78 69.86C275.889 68.4093 276.444 66.8733 276.444 65.252C276.444 63.716 275.889 62.308 274.78 61.028C273.756 59.6627 272.135 58.98 269.916 58.98H263.132C260.828 58.98 259.676 60.0893 259.676 62.308V69.092C259.676 71.0547 260.615 72.036 262.492 72.036ZM298.121 103.78C297.012 103.78 296.03 103.396 295.177 102.628C294.324 101.86 293.897 100.836 293.897 99.556C293.897 99.1293 293.982 98.5747 294.153 97.892L310.153 54.5C310.75 53.0493 311.646 51.94 312.841 51.172C314.036 50.404 315.316 50.02 316.681 50.02C318.046 50.02 319.326 50.404 320.521 51.172C321.801 51.94 322.74 53.0493 323.337 54.5L340.361 97.892C340.532 98.5747 340.617 99.1293 340.617 99.556C340.617 100.836 340.19 101.86 339.337 102.628C338.484 103.396 337.502 103.78 336.393 103.78C335.625 103.78 334.814 103.567 333.961 103.14C333.193 102.799 332.596 102.201 332.169 101.348L327.945 90.084C327.86 89.572 327.518 89.316 326.921 89.316H307.337C306.74 89.316 306.356 89.572 306.185 90.084L302.345 101.348C301.918 102.201 301.278 102.799 300.425 103.14C299.657 103.567 298.889 103.78 298.121 103.78ZM311.177 81.636H322.697C323.209 81.636 323.593 81.4653 323.849 81.124C324.19 80.6973 324.276 80.1853 324.105 79.588L317.961 62.052C317.705 61.1987 317.321 60.772 316.809 60.772C316.212 60.772 315.785 61.1987 315.529 62.052L309.769 79.716C309.598 80.228 309.641 80.6973 309.897 81.124C310.238 81.4653 310.665 81.636 311.177 81.636ZM361.832 103.78C360.467 103.78 359.357 103.396 358.504 102.628C357.736 101.86 357.352 100.879 357.352 99.684V62.436C357.352 60.3027 356.243 59.236 354.024 59.236H345.96C343.315 59.236 341.992 57.9133 341.992 55.268C341.992 52.6227 343.315 51.3 345.96 51.3H377.576C378.771 51.3 379.752 51.684 380.52 52.452C381.288 53.1347 381.672 54.0733 381.672 55.268C381.672 56.4627 381.288 57.444 380.52 58.212C379.752 58.8947 378.771 59.236 377.576 59.236H369.64C367.421 59.236 366.312 60.3027 366.312 62.436V99.684C366.312 100.879 365.885 101.86 365.032 102.628C364.264 103.396 363.197 103.78 361.832 103.78ZM426.896 99.684C425.445 100.793 423.184 101.732 420.112 102.5C417.04 103.353 414.011 103.78 411.024 103.78C406.075 103.78 401.637 102.628 397.712 100.324C393.787 98.02 390.672 94.82 388.368 90.724C386.064 86.628 384.912 81.9347 384.912 76.644C384.912 71.4387 386.021 66.8307 388.24 62.82C390.459 58.8093 393.573 55.6947 397.584 53.476C401.68 51.172 406.416 50.02 411.792 50.02C413.925 50.02 416.016 50.1907 418.064 50.532C420.197 50.8733 422.331 51.4707 424.464 52.324C425.317 52.7507 425.915 53.348 426.256 54.116C426.683 54.7987 426.896 55.4813 426.896 56.164C426.896 57.2733 426.512 58.2547 425.744 59.108C425.061 59.9613 424.123 60.388 422.928 60.388C422.416 60.388 421.819 60.26 421.136 60.004C419.771 59.492 418.149 59.0227 416.272 58.596C414.48 58.1693 412.688 57.956 410.896 57.956C407.483 57.956 404.496 58.852 401.936 60.644C399.376 62.3507 397.371 64.6547 395.92 67.556C394.555 70.4573 393.872 73.6573 393.872 77.156C393.872 82.3613 395.451 86.7987 398.608 90.468C401.765 94.1373 405.947 95.972 411.152 95.972C413.456 95.972 415.717 95.6307 417.936 94.948C420.155 94.18 421.819 93.3693 422.928 92.516C423.867 92.004 424.677 91.748 425.36 91.748C426.469 91.748 427.365 92.1747 428.048 93.028C428.731 93.796 429.072 94.692 429.072 95.716C429.072 97.252 428.347 98.5747 426.896 99.684ZM441.827 103.78C440.547 103.78 439.48 103.396 438.627 102.628C437.774 101.86 437.347 100.879 437.347 99.684V54.884C437.347 53.604 437.774 52.58 438.627 51.812C439.48 51.044 440.547 50.66 441.827 50.66C443.192 50.66 444.259 51.044 445.027 51.812C445.88 52.58 446.307 53.604 446.307 54.884V67.812C446.307 70.372 447.502 71.652 449.891 71.652H468.323C470.712 71.652 471.907 70.372 471.907 67.812V54.884C471.907 53.604 472.291 52.58 473.059 51.812C473.912 51.044 475.022 50.66 476.387 50.66C477.752 50.66 478.819 51.044 479.587 51.812C480.44 52.58 480.867 53.604 480.867 54.884V99.684C480.867 100.879 480.44 101.86 479.587 102.628C478.819 103.396 477.752 103.78 476.387 103.78C475.022 103.78 473.912 103.396 473.059 102.628C472.291 101.86 471.907 100.879 471.907 99.684V83.428C471.907 80.868 470.712 79.588 468.323 79.588H449.891C447.502 79.588 446.307 80.868 446.307 83.428V99.684C446.307 100.879 445.88 101.86 445.027 102.628C444.259 103.396 443.192 103.78 441.827 103.78Z" fill="white"/>
<path d="M494.907 103.78C493.542 103.78 492.39 103.311 491.451 102.372C490.598 101.348 490.256 100.153 490.427 98.788L495.931 55.78C496.102 54.0733 496.742 52.7933 497.851 51.94C499.046 51.0867 500.326 50.66 501.691 50.66C503.056 50.66 504.294 51.0013 505.403 51.684C506.598 52.2813 507.408 53.22 507.835 54.5L517.947 83.172C518.374 84.196 518.8 84.708 519.227 84.708C519.739 84.708 520.166 84.196 520.507 83.172L530.619 54.5C531.046 53.22 531.814 52.2813 532.923 51.684C534.118 51.0013 535.355 50.66 536.635 50.66C538 50.66 539.28 51.0867 540.475 51.94C541.67 52.7933 542.352 54.0733 542.523 55.78L548.027 98.788C548.198 100.153 547.856 101.348 547.003 102.372C546.15 103.311 544.998 103.78 543.547 103.78C542.438 103.78 541.414 103.396 540.475 102.628C539.622 101.86 539.11 100.879 538.939 99.684L536.123 68.068C536.038 67.044 535.696 66.532 535.099 66.532C534.502 66.532 534.075 66.9587 533.819 67.812L524.603 93.284C524.091 94.6493 523.366 95.6307 522.427 96.228C521.488 96.8253 520.422 97.124 519.227 97.124C516.923 97.124 515.174 95.844 513.979 93.284L504.635 67.812C504.294 66.9587 503.867 66.532 503.355 66.532C503.014 66.532 502.758 67.044 502.587 68.068L499.515 99.684C499.43 100.879 498.918 101.86 497.979 102.628C497.126 103.396 496.102 103.78 494.907 103.78ZM558.621 103.78C557.512 103.78 556.53 103.396 555.677 102.628C554.824 101.86 554.397 100.836 554.397 99.556C554.397 99.1293 554.482 98.5747 554.653 97.892L570.653 54.5C571.25 53.0493 572.146 51.94 573.341 51.172C574.536 50.404 575.816 50.02 577.181 50.02C578.546 50.02 579.826 50.404 581.021 51.172C582.301 51.94 583.24 53.0493 583.837 54.5L600.861 97.892C601.032 98.5747 601.117 99.1293 601.117 99.556C601.117 100.836 600.69 101.86 599.837 102.628C598.984 103.396 598.002 103.78 596.893 103.78C596.125 103.78 595.314 103.567 594.461 103.14C593.693 102.799 593.096 102.201 592.669 101.348L588.445 90.084C588.36 89.572 588.018 89.316 587.421 89.316H567.837C567.24 89.316 566.856 89.572 566.685 90.084L562.845 101.348C562.418 102.201 561.778 102.799 560.925 103.14C560.157 103.567 559.389 103.78 558.621 103.78ZM571.677 81.636H583.197C583.709 81.636 584.093 81.4653 584.349 81.124C584.69 80.6973 584.776 80.1853 584.605 79.588L578.461 62.052C578.205 61.1987 577.821 60.772 577.309 60.772C576.712 60.772 576.285 61.1987 576.029 62.052L570.269 79.716C570.098 80.228 570.141 80.6973 570.397 81.124C570.738 81.4653 571.165 81.636 571.677 81.636ZM613.952 103.78C612.843 103.78 611.819 103.439 610.88 102.756C609.941 102.073 609.472 101.049 609.472 99.684V56.548C609.472 54.5853 610.069 53.1347 611.264 52.196C612.544 51.172 613.909 50.66 615.36 50.66C617.579 50.66 619.2 51.5133 620.224 53.22L641.344 86.372C641.771 87.0547 642.24 87.396 642.752 87.396C643.52 87.396 643.904 86.7987 643.904 85.604L643.392 54.756C643.392 53.3907 643.861 52.3667 644.8 51.684C645.739 51.0013 646.763 50.66 647.872 50.66C648.981 50.66 650.005 51.0013 650.944 51.684C651.883 52.3667 652.352 53.3907 652.352 54.756V98.148C652.352 100.025 651.797 101.433 650.688 102.372C649.579 103.311 648.299 103.78 646.848 103.78C645.824 103.78 644.8 103.524 643.776 103.012C642.837 102.585 642.027 101.86 641.344 100.836L620.608 68.58C620.181 67.8973 619.712 67.556 619.2 67.556C618.432 67.556 618.048 68.1533 618.048 69.348L618.432 99.684C618.432 101.049 617.963 102.073 617.024 102.756C616.171 103.439 615.147 103.78 613.952 103.78ZM664.871 103.78C663.762 103.78 662.78 103.396 661.927 102.628C661.074 101.86 660.647 100.836 660.647 99.556C660.647 99.1293 660.732 98.5747 660.903 97.892L676.903 54.5C677.5 53.0493 678.396 51.94 679.591 51.172C680.786 50.404 682.066 50.02 683.431 50.02C684.796 50.02 686.076 50.404 687.271 51.172C688.551 51.94 689.49 53.0493 690.087 54.5L707.111 97.892C707.282 98.5747 707.367 99.1293 707.367 99.556C707.367 100.836 706.94 101.86 706.087 102.628C705.234 103.396 704.252 103.78 703.143 103.78C702.375 103.78 701.564 103.567 700.711 103.14C699.943 102.799 699.346 102.201 698.919 101.348L694.695 90.084C694.61 89.572 694.268 89.316 693.671 89.316H674.087C673.49 89.316 673.106 89.572 672.935 90.084L669.095 101.348C668.668 102.201 668.028 102.799 667.175 103.14C666.407 103.567 665.639 103.78 664.871 103.78ZM677.927 81.636H689.447C689.959 81.636 690.343 81.4653 690.599 81.124C690.94 80.6973 691.026 80.1853 690.855 79.588L684.711 62.052C684.455 61.1987 684.071 60.772 683.559 60.772C682.962 60.772 682.535 61.1987 682.279 62.052L676.519 79.716C676.348 80.228 676.391 80.6973 676.647 81.124C676.988 81.4653 677.415 81.636 677.927 81.636ZM738.152 103.78C733.288 103.78 728.851 102.628 724.84 100.324C720.915 97.9347 717.757 94.7347 715.368 90.724C713.064 86.628 711.912 82.02 711.912 76.9C711.912 71.524 713.064 66.8307 715.368 62.82C717.757 58.724 720.957 55.5667 724.968 53.348C729.064 51.1293 733.629 50.02 738.664 50.02C742.163 50.02 745.405 50.4893 748.392 51.428C751.379 52.2813 754.195 53.6893 756.84 55.652C757.864 56.5053 758.376 57.6573 758.376 59.108C758.376 60.2173 757.992 61.1987 757.224 62.052C756.541 62.82 755.603 63.204 754.408 63.204C753.64 63.204 752.787 62.9053 751.848 62.308C749.8 60.772 747.667 59.6627 745.448 58.98C743.229 58.2973 741.011 57.956 738.792 57.956C733.587 57.956 729.277 59.7053 725.864 63.204C722.536 66.6173 720.872 71.1827 720.872 76.9C720.872 82.4467 722.451 87.012 725.608 90.596C728.851 94.0947 733.032 95.844 738.152 95.844C741.224 95.844 743.912 95.2893 746.216 94.18C748.605 93.0707 750.483 91.6627 751.848 89.956C753.299 88.164 754.109 86.4147 754.28 84.708C754.28 83.3427 753.597 82.66 752.232 82.66H743.144C740.328 82.66 738.92 81.3373 738.92 78.692C738.92 77.4973 739.304 76.5587 740.072 75.876C740.84 75.1933 741.864 74.852 743.144 74.852H757.736C759.613 74.852 760.979 75.2787 761.832 76.132C762.685 76.9 763.112 78.436 763.112 80.74C763.112 84.9213 762.045 88.7613 759.912 92.26C757.864 95.7587 754.963 98.5747 751.208 100.708C747.453 102.756 743.101 103.78 738.152 103.78ZM779.137 102.5C777.004 102.5 775.297 101.86 774.017 100.58C772.737 99.3 772.097 97.5933 772.097 95.46V57.956C772.097 55.9933 772.737 54.4147 774.017 53.22C775.382 51.94 776.961 51.3 778.753 51.3H798.081C799.532 51.3 800.556 51.684 801.153 52.452C801.836 53.1347 802.177 54.0307 802.177 55.14C802.177 56.164 801.793 57.06 801.025 57.828C800.342 58.596 799.361 58.98 798.081 58.98H784.385C782.166 58.98 781.057 60.0893 781.057 62.308V69.348C781.057 71.5667 782.081 72.676 784.129 72.676H796.801C798.252 72.676 799.276 73.06 799.873 73.828C800.556 74.596 800.897 75.492 800.897 76.516C800.897 77.4547 800.513 78.3507 799.745 79.204C799.062 79.972 798.081 80.356 796.801 80.356H784.129C782.081 80.356 781.057 81.4227 781.057 83.556V91.364C781.057 93.5827 782.124 94.692 784.257 94.692H799.361C800.812 94.692 801.836 95.1187 802.433 95.972C803.116 96.74 803.457 97.636 803.457 98.66C803.457 99.684 803.073 100.58 802.305 101.348C801.622 102.116 800.641 102.5 799.361 102.5H779.137ZM253.532 180.78C252.167 180.78 251.015 180.311 250.076 179.372C249.223 178.348 248.881 177.153 249.052 175.788L254.556 132.78C254.727 131.073 255.367 129.793 256.476 128.94C257.671 128.087 258.951 127.66 260.316 127.66C261.681 127.66 262.919 128.001 264.028 128.684C265.223 129.281 266.033 130.22 266.46 131.5L276.572 160.172C276.999 161.196 277.425 161.708 277.852 161.708C278.364 161.708 278.791 161.196 279.132 160.172L289.244 131.5C289.671 130.22 290.439 129.281 291.548 128.684C292.743 128.001 293.98 127.66 295.26 127.66C296.625 127.66 297.905 128.087 299.1 128.94C300.295 129.793 300.977 131.073 301.148 132.78L306.652 175.788C306.823 177.153 306.481 178.348 305.628 179.372C304.775 180.311 303.623 180.78 302.172 180.78C301.063 180.78 300.039 180.396 299.1 179.628C298.247 178.86 297.735 177.879 297.564 176.684L294.748 145.068C294.663 144.044 294.321 143.532 293.724 143.532C293.127 143.532 292.7 143.959 292.444 144.812L283.228 170.284C282.716 171.649 281.991 172.631 281.052 173.228C280.113 173.825 279.047 174.124 277.852 174.124C275.548 174.124 273.799 172.844 272.604 170.284L263.26 144.812C262.919 143.959 262.492 143.532 261.98 143.532C261.639 143.532 261.383 144.044 261.212 145.068L258.14 176.684C258.055 177.879 257.543 178.86 256.604 179.628C255.751 180.396 254.727 180.78 253.532 180.78ZM323.262 179.5C321.129 179.5 319.422 178.86 318.142 177.58C316.862 176.3 316.222 174.593 316.222 172.46V134.956C316.222 132.993 316.862 131.415 318.142 130.22C319.507 128.94 321.086 128.3 322.878 128.3H342.206C343.657 128.3 344.681 128.684 345.278 129.452C345.961 130.135 346.302 131.031 346.302 132.14C346.302 133.164 345.918 134.06 345.15 134.828C344.467 135.596 343.486 135.98 342.206 135.98H328.51C326.291 135.98 325.182 137.089 325.182 139.308V146.348C325.182 148.567 326.206 149.676 328.254 149.676H340.926C342.377 149.676 343.401 150.06 343.998 150.828C344.681 151.596 345.022 152.492 345.022 153.516C345.022 154.455 344.638 155.351 343.87 156.204C343.187 156.972 342.206 157.356 340.926 157.356H328.254C326.206 157.356 325.182 158.423 325.182 160.556V168.364C325.182 170.583 326.249 171.692 328.382 171.692H343.486C344.937 171.692 345.961 172.119 346.558 172.972C347.241 173.74 347.582 174.636 347.582 175.66C347.582 176.684 347.198 177.58 346.43 178.348C345.747 179.116 344.766 179.5 343.486 179.5H323.262ZM361.702 180.78C360.593 180.78 359.569 180.439 358.63 179.756C357.691 179.073 357.222 178.049 357.222 176.684V133.548C357.222 131.585 357.819 130.135 359.014 129.196C360.294 128.172 361.659 127.66 363.11 127.66C365.329 127.66 366.95 128.513 367.974 130.22L389.094 163.372C389.521 164.055 389.99 164.396 390.502 164.396C391.27 164.396 391.654 163.799 391.654 162.604L391.142 131.756C391.142 130.391 391.611 129.367 392.55 128.684C393.489 128.001 394.513 127.66 395.622 127.66C396.731 127.66 397.755 128.001 398.694 128.684C399.633 129.367 400.102 130.391 400.102 131.756V175.148C400.102 177.025 399.547 178.433 398.438 179.372C397.329 180.311 396.049 180.78 394.598 180.78C393.574 180.78 392.55 180.524 391.526 180.012C390.587 179.585 389.777 178.86 389.094 177.836L368.358 145.58C367.931 144.897 367.462 144.556 366.95 144.556C366.182 144.556 365.798 145.153 365.798 146.348L366.182 176.684C366.182 178.049 365.713 179.073 364.774 179.756C363.921 180.439 362.897 180.78 361.702 180.78ZM426.957 180.78C425.592 180.78 424.482 180.396 423.629 179.628C422.861 178.86 422.477 177.879 422.477 176.684V139.436C422.477 137.303 421.368 136.236 419.149 136.236H411.085C408.44 136.236 407.117 134.913 407.117 132.268C407.117 129.623 408.44 128.3 411.085 128.3H442.701C443.896 128.3 444.877 128.684 445.645 129.452C446.413 130.135 446.797 131.073 446.797 132.268C446.797 133.463 446.413 134.444 445.645 135.212C444.877 135.895 443.896 136.236 442.701 136.236H434.765C432.546 136.236 431.437 137.303 431.437 139.436V176.684C431.437 177.879 431.01 178.86 430.157 179.628C429.389 180.396 428.322 180.78 426.957 180.78Z" fill="#059E83"/>
<path d="M470.487 180.78C466.732 180.78 463.106 180.14 459.607 178.86C456.194 177.58 453.548 175.745 451.671 173.356C450.988 172.417 450.647 171.479 450.647 170.54C450.647 169.431 451.074 168.492 451.927 167.724C452.866 166.871 453.89 166.444 454.999 166.444C455.596 166.444 456.194 166.572 456.791 166.828C457.388 166.999 457.858 167.34 458.199 167.852C459.564 169.473 461.399 170.753 463.703 171.692C466.092 172.631 468.567 173.1 471.127 173.1C474.114 173.1 476.546 172.375 478.423 170.924C480.386 169.473 481.367 167.553 481.367 165.164C481.367 162.433 480.215 160.513 477.911 159.404C475.692 158.209 473.09 157.356 470.103 156.844C467.372 156.332 464.599 155.607 461.783 154.668C458.967 153.644 456.62 152.193 454.743 150.316C452.866 148.353 451.927 145.708 451.927 142.38C451.927 137.857 453.634 134.273 457.047 131.628C460.546 128.983 465.196 127.66 470.999 127.66C474.071 127.66 476.887 128.129 479.447 129.068C482.007 129.921 484.14 131.116 485.847 132.652C486.871 133.505 487.383 134.572 487.383 135.852C487.383 136.876 486.999 137.772 486.231 138.54C485.463 139.308 484.567 139.692 483.543 139.692C482.519 139.692 481.538 139.351 480.599 138.668C477.868 136.449 474.498 135.34 470.487 135.34C463.66 135.34 460.247 137.644 460.247 142.252C460.247 144.471 461.271 146.007 463.319 146.86C465.452 147.628 468.311 148.439 471.895 149.292C473.602 149.633 475.436 150.145 477.399 150.828C479.447 151.425 481.41 152.321 483.287 153.516C485.164 154.625 486.7 156.161 487.895 158.124C489.09 160.001 489.687 162.391 489.687 165.292C489.687 169.9 487.895 173.655 484.311 176.556C480.812 179.372 476.204 180.78 470.487 180.78ZM516.547 180.78C515.182 180.78 514.072 180.396 513.219 179.628C512.451 178.86 512.067 177.879 512.067 176.684V162.604C512.067 160.556 511.512 158.679 510.403 156.972L495.555 134.572C495.043 133.804 494.787 133.036 494.787 132.268C494.787 130.988 495.299 129.921 496.323 129.068C497.347 128.129 498.456 127.66 499.651 127.66C500.334 127.66 500.974 127.788 501.571 128.044C502.168 128.3 502.68 128.812 503.107 129.58L515.267 149.036C515.608 149.633 516.035 149.932 516.547 149.932C517.059 149.932 517.486 149.633 517.827 149.036L529.987 129.58C530.414 128.812 530.926 128.3 531.523 128.044C532.206 127.788 532.846 127.66 533.443 127.66C534.638 127.66 535.747 128.129 536.771 129.068C537.795 129.921 538.307 130.988 538.307 132.268C538.307 133.036 538.051 133.804 537.539 134.572L522.691 156.972C521.582 158.679 521.027 160.556 521.027 162.604V176.684C521.027 177.879 520.6 178.86 519.747 179.628C518.979 180.396 517.912 180.78 516.547 180.78ZM562.612 180.78C558.857 180.78 555.231 180.14 551.732 178.86C548.319 177.58 545.673 175.745 543.796 173.356C543.113 172.417 542.772 171.479 542.772 170.54C542.772 169.431 543.199 168.492 544.052 167.724C544.991 166.871 546.015 166.444 547.124 166.444C547.721 166.444 548.319 166.572 548.916 166.828C549.513 166.999 549.983 167.34 550.324 167.852C551.689 169.473 553.524 170.753 555.828 171.692C558.217 172.631 560.692 173.1 563.252 173.1C566.239 173.1 568.671 172.375 570.548 170.924C572.511 169.473 573.492 167.553 573.492 165.164C573.492 162.433 572.34 160.513 570.036 159.404C567.817 158.209 565.215 157.356 562.228 156.844C559.497 156.332 556.724 155.607 553.908 154.668C551.092 153.644 548.745 152.193 546.868 150.316C544.991 148.353 544.052 145.708 544.052 142.38C544.052 137.857 545.759 134.273 549.172 131.628C552.671 128.983 557.321 127.66 563.124 127.66C566.196 127.66 569.012 128.129 571.572 129.068C574.132 129.921 576.265 131.116 577.972 132.652C578.996 133.505 579.508 134.572 579.508 135.852C579.508 136.876 579.124 137.772 578.356 138.54C577.588 139.308 576.692 139.692 575.668 139.692C574.644 139.692 573.663 139.351 572.724 138.668C569.993 136.449 566.623 135.34 562.612 135.34C555.785 135.34 552.372 137.644 552.372 142.252C552.372 144.471 553.396 146.007 555.444 146.86C557.577 147.628 560.436 148.439 564.02 149.292C565.727 149.633 567.561 150.145 569.524 150.828C571.572 151.425 573.535 152.321 575.412 153.516C577.289 154.625 578.825 156.161 580.02 158.124C581.215 160.001 581.812 162.391 581.812 165.292C581.812 169.9 580.02 173.655 576.436 176.556C572.937 179.372 568.329 180.78 562.612 180.78ZM606.082 180.78C604.717 180.78 603.607 180.396 602.754 179.628C601.986 178.86 601.602 177.879 601.602 176.684V139.436C601.602 137.303 600.493 136.236 598.274 136.236H590.21C587.565 136.236 586.242 134.913 586.242 132.268C586.242 129.623 587.565 128.3 590.21 128.3H621.826C623.021 128.3 624.002 128.684 624.77 129.452C625.538 130.135 625.922 131.073 625.922 132.268C625.922 133.463 625.538 134.444 624.77 135.212C624.002 135.895 623.021 136.236 621.826 136.236H613.89C611.671 136.236 610.562 137.303 610.562 139.436V176.684C610.562 177.879 610.135 178.86 609.282 179.628C608.514 180.396 607.447 180.78 606.082 180.78ZM640.012 179.5C637.879 179.5 636.172 178.86 634.892 177.58C633.612 176.3 632.972 174.593 632.972 172.46V134.956C632.972 132.993 633.612 131.415 634.892 130.22C636.257 128.94 637.836 128.3 639.628 128.3H658.956C660.407 128.3 661.431 128.684 662.028 129.452C662.711 130.135 663.052 131.031 663.052 132.14C663.052 133.164 662.668 134.06 661.9 134.828C661.217 135.596 660.236 135.98 658.956 135.98H645.26C643.041 135.98 641.932 137.089 641.932 139.308V146.348C641.932 148.567 642.956 149.676 645.004 149.676H657.676C659.127 149.676 660.151 150.06 660.748 150.828C661.431 151.596 661.772 152.492 661.772 153.516C661.772 154.455 661.388 155.351 660.62 156.204C659.937 156.972 658.956 157.356 657.676 157.356H645.004C642.956 157.356 641.932 158.423 641.932 160.556V168.364C641.932 170.583 642.999 171.692 645.132 171.692H660.236C661.687 171.692 662.711 172.119 663.308 172.972C663.991 173.74 664.332 174.636 664.332 175.66C664.332 176.684 663.948 177.58 663.18 178.348C662.497 179.116 661.516 179.5 660.236 179.5H640.012ZM676.532 180.78C675.167 180.78 674.015 180.311 673.076 179.372C672.223 178.348 671.881 177.153 672.052 175.788L677.556 132.78C677.727 131.073 678.367 129.793 679.476 128.94C680.671 128.087 681.951 127.66 683.316 127.66C684.681 127.66 685.919 128.001 687.028 128.684C688.223 129.281 689.033 130.22 689.46 131.5L699.572 160.172C699.999 161.196 700.425 161.708 700.852 161.708C701.364 161.708 701.791 161.196 702.132 160.172L712.244 131.5C712.671 130.22 713.439 129.281 714.548 128.684C715.743 128.001 716.98 127.66 718.26 127.66C719.625 127.66 720.905 128.087 722.1 128.94C723.295 129.793 723.977 131.073 724.148 132.78L729.652 175.788C729.823 177.153 729.481 178.348 728.628 179.372C727.775 180.311 726.623 180.78 725.172 180.78C724.063 180.78 723.039 180.396 722.1 179.628C721.247 178.86 720.735 177.879 720.564 176.684L717.748 145.068C717.663 144.044 717.321 143.532 716.724 143.532C716.127 143.532 715.7 143.959 715.444 144.812L706.228 170.284C705.716 171.649 704.991 172.631 704.052 173.228C703.113 173.825 702.047 174.124 700.852 174.124C698.548 174.124 696.799 172.844 695.604 170.284L686.26 144.812C685.919 143.959 685.492 143.532 684.98 143.532C684.639 143.532 684.383 144.044 684.212 145.068L681.14 176.684C681.055 177.879 680.543 178.86 679.604 179.628C678.751 180.396 677.727 180.78 676.532 180.78Z" fill="#9548D1"/>
</svg>
