<svg width="276" height="280" viewBox="0 0 276 280" fill="none" xmlns="http://www.w3.org/2000/svg">
<circle cx="188.158" cy="153.241" r="5" transform="rotate(-8 188.158 153.241)" stroke="white" stroke-width="3"/>
<circle cx="195.686" cy="138.55" r="3.5" transform="rotate(-8 195.686 138.55)" stroke="white" stroke-width="3"/>
<path d="M168.118 240.882C168.942 240.789 169.534 240.046 169.441 239.223C169.348 238.4 168.605 237.808 167.782 237.901L168.118 240.882ZM119.978 34.5745C119.578 33.1288 119.577 33.1291 119.576 33.1295C119.575 33.1297 119.573 33.1302 119.571 33.1307C119.568 33.1318 119.562 33.1332 119.556 33.1351C119.543 33.1388 119.524 33.1441 119.5 33.151C119.451 33.1648 119.381 33.1851 119.289 33.212C119.106 33.2658 118.838 33.3462 118.492 33.4545C117.799 33.6712 116.791 33.9996 115.518 34.4508C112.973 35.3529 109.364 36.7467 105.087 38.7198C96.5371 42.6638 85.2876 48.9357 74.5169 58.2466C52.9245 76.9126 33.3092 107.769 41.1468 156.261L44.1083 155.782C36.4658 108.497 55.5259 78.6293 76.4788 60.5162C86.9807 51.4376 97.9714 45.306 106.344 41.444C110.527 39.5141 114.05 38.1542 116.521 37.2784C117.756 36.8406 118.728 36.524 119.387 36.3179C119.717 36.2148 119.968 36.1394 120.135 36.0902C120.219 36.0656 120.281 36.0476 120.322 36.036C120.342 36.0302 120.357 36.026 120.367 36.0234C120.371 36.0221 120.375 36.0212 120.377 36.0207C120.377 36.0204 120.378 36.0203 120.378 36.0202C120.378 36.0202 120.378 36.0203 119.978 34.5745ZM41.1468 156.261C49.0042 204.877 80.8905 226.076 110.66 235.059C125.52 239.543 139.872 240.997 150.498 241.333C155.814 241.501 160.207 241.39 163.275 241.236C164.81 241.159 166.014 241.071 166.837 241.002C167.249 240.968 167.566 240.938 167.782 240.917C167.89 240.906 167.972 240.898 168.028 240.892C168.057 240.889 168.078 240.886 168.093 240.885C168.101 240.884 168.107 240.883 168.111 240.883C168.113 240.883 168.115 240.882 168.116 240.882C168.117 240.882 168.118 240.882 167.95 239.391C167.782 237.901 167.782 237.901 167.782 237.901C167.781 237.901 167.78 237.901 167.779 237.901C167.777 237.901 167.773 237.902 167.767 237.903C167.755 237.904 167.737 237.906 167.712 237.908C167.663 237.914 167.588 237.921 167.487 237.931C167.286 237.951 166.984 237.98 166.588 238.013C165.795 238.079 164.624 238.164 163.125 238.239C160.126 238.39 155.816 238.5 150.593 238.334C140.139 238.004 126.063 236.573 111.527 232.187C82.5059 223.43 51.7309 202.944 44.1083 155.782L41.1468 156.261Z" fill="white"/>
<path d="M61.2528 112.506C61.2528 112.506 50.8843 132.14 60.1582 158.607C69.4321 185.074 85.3137 197.484 85.3137 197.484" stroke="#9548D1" stroke-width="3"/>
<path d="M168.472 196.4L167.891 195.017L168.472 196.4ZM204.377 165.107C204.547 164.296 204.027 163.501 203.216 163.332C202.405 163.162 201.61 163.683 201.441 164.494L204.377 165.107ZM111.195 72.6676C110.385 71.4048 110.385 71.4052 110.384 71.4058C110.383 71.4061 110.382 71.4068 110.381 71.4074C110.379 71.4087 110.377 71.4105 110.373 71.4127C110.366 71.4171 110.357 71.4233 110.344 71.4313C110.32 71.4473 110.285 71.4703 110.239 71.5003C110.148 71.5605 110.016 71.6488 109.845 71.7648C109.503 71.9968 109.009 72.34 108.387 72.791C107.142 73.6928 105.384 75.0269 103.314 76.7674C99.1777 80.2457 93.7765 85.3614 88.7297 91.9093C78.6401 105 69.8711 123.957 75.7015 146.993L78.6098 146.257C73.0868 124.436 81.3375 106.414 91.1059 93.7407C95.9881 87.4063 101.225 82.4434 105.245 79.0635C107.253 77.375 108.953 76.0851 110.147 75.2203C110.744 74.7879 111.213 74.462 111.531 74.2459C111.69 74.1379 111.811 74.0573 111.891 74.0045C111.931 73.9782 111.961 73.9588 111.98 73.9464C111.989 73.9402 111.996 73.9358 112 73.9331C112.002 73.9318 112.004 73.9309 112.005 73.9304C112.005 73.9302 112.005 73.9302 112.005 73.9301C112.005 73.9302 112.005 73.9304 111.195 72.6676ZM75.7015 146.993C87.2816 192.744 135.115 212.032 169.053 197.783L167.891 195.017C135.635 208.56 89.7367 190.218 78.6098 146.257L75.7015 146.993ZM169.053 197.783C184.541 191.281 193.365 183.222 198.327 176.705C200.804 173.451 202.308 170.594 203.197 168.529C203.641 167.497 203.932 166.663 204.114 166.076C204.205 165.783 204.268 165.551 204.31 165.388C204.331 165.306 204.347 165.241 204.358 165.194C204.363 165.17 204.368 165.151 204.371 165.137C204.373 165.129 204.374 165.123 204.375 165.118C204.375 165.116 204.376 165.114 204.376 165.112C204.377 165.111 204.377 165.109 204.377 165.109C204.377 165.108 204.377 165.107 202.909 164.8C201.441 164.494 201.441 164.493 201.441 164.492C201.441 164.492 201.441 164.491 201.441 164.49C201.442 164.49 201.442 164.489 201.442 164.489C201.442 164.488 201.442 164.489 201.441 164.491C201.441 164.494 201.439 164.502 201.436 164.515C201.43 164.54 201.42 164.582 201.405 164.641C201.374 164.759 201.324 164.943 201.248 165.189C201.096 165.68 200.842 166.414 200.442 167.343C199.642 169.201 198.258 171.843 195.94 174.887C191.311 180.967 182.917 188.709 167.891 195.017L169.053 197.783Z" fill="#9548D1"/>
<path d="M235.63 184.179C235.316 184.946 235.683 185.822 236.45 186.136C237.217 186.449 238.092 186.082 238.406 185.315L235.63 184.179ZM245.16 149.269L246.633 149.549L245.16 149.269ZM237.018 184.747C238.406 185.315 238.406 185.315 238.407 185.314C238.407 185.314 238.407 185.313 238.407 185.313C238.408 185.312 238.408 185.311 238.409 185.31C238.409 185.307 238.411 185.305 238.412 185.302C238.414 185.295 238.417 185.288 238.421 185.278C238.428 185.259 238.438 185.234 238.451 185.201C238.476 185.136 238.51 185.043 238.555 184.917C238.645 184.665 238.775 184.283 238.946 183.739C239.288 182.653 239.796 180.915 240.475 178.275C241.832 172.997 243.874 164.094 246.633 149.549L243.686 148.989C240.934 163.493 238.906 172.33 237.569 177.528C236.901 180.127 236.408 181.812 236.084 182.838C235.923 183.351 235.804 183.698 235.728 183.912C235.691 184.018 235.663 184.091 235.647 184.135C235.639 184.156 235.633 184.17 235.63 184.178C235.629 184.181 235.628 184.183 235.628 184.183C235.628 184.184 235.628 184.183 235.628 184.183C235.628 184.182 235.629 184.182 235.629 184.181C235.629 184.181 235.629 184.18 235.629 184.18C235.629 184.18 235.63 184.179 237.018 184.747ZM246.633 149.549C248.951 137.329 245.813 129.027 239.486 123.677C233.291 118.438 224.289 116.253 215.288 115.57C206.244 114.884 196.951 115.699 189.946 116.675C186.438 117.164 183.49 117.696 181.416 118.106C180.379 118.311 179.56 118.486 178.998 118.61C178.717 118.672 178.501 118.721 178.353 118.755C178.28 118.772 178.223 118.785 178.185 118.795C178.165 118.799 178.151 118.803 178.14 118.805C178.135 118.806 178.131 118.807 178.128 118.808C178.127 118.808 178.126 118.809 178.125 118.809C178.124 118.809 178.123 118.809 178.474 120.267C178.825 121.726 178.825 121.726 178.825 121.726C178.826 121.726 178.826 121.726 178.827 121.725C178.829 121.725 178.832 121.724 178.836 121.723C178.844 121.721 178.857 121.718 178.874 121.714C178.908 121.706 178.96 121.694 179.029 121.678C179.167 121.646 179.374 121.599 179.645 121.539C180.187 121.42 180.984 121.249 181.998 121.049C184.026 120.648 186.917 120.126 190.36 119.646C197.258 118.685 206.316 117.898 215.062 118.562C223.852 119.229 232.081 121.343 237.549 125.968C242.887 130.482 245.845 137.606 243.686 148.989L246.633 149.549Z" fill="white"/>
<path d="M179.895 54.9338L170.594 71.3884" stroke="#059E83" stroke-width="3"/>
<path d="M236.227 186.022C236.931 186.459 237.856 186.242 238.292 185.538C238.729 184.834 238.512 183.909 237.808 183.473L236.227 186.022ZM237.808 183.473L221.214 173.182L219.633 175.731L236.227 186.022L237.808 183.473Z" fill="white"/>
<path d="M61.7747 162.924L80.2419 157.804" stroke="#9548D1" stroke-width="3"/>
<path d="M156.46 175.872C157.284 175.777 157.874 175.033 157.779 174.21C157.685 173.387 156.941 172.797 156.118 172.891L156.46 175.872ZM103.197 137.916C101.716 138.151 101.716 138.152 101.716 138.153C101.716 138.153 101.716 138.154 101.716 138.154C101.717 138.156 101.717 138.157 101.717 138.159C101.718 138.163 101.719 138.167 101.72 138.173C101.721 138.185 101.724 138.2 101.728 138.22C101.734 138.26 101.744 138.317 101.758 138.39C101.784 138.535 101.825 138.744 101.881 139.011C101.994 139.544 102.171 140.309 102.432 141.256C102.953 143.148 103.81 145.774 105.157 148.736C107.847 154.651 112.525 161.969 120.458 167.408L122.154 164.933C114.808 159.896 110.431 153.087 107.887 147.494C106.617 144.701 105.811 142.228 105.324 140.459C105.081 139.575 104.918 138.869 104.816 138.389C104.766 138.15 104.73 137.967 104.708 137.846C104.697 137.786 104.689 137.742 104.684 137.714C104.682 137.7 104.68 137.69 104.679 137.684C104.679 137.681 104.679 137.679 104.679 137.679C104.678 137.678 104.678 137.678 104.679 137.679C104.679 137.679 104.679 137.679 104.679 137.679C104.679 137.679 104.679 137.68 103.197 137.916ZM120.458 167.408C128.376 172.837 137.393 174.937 144.365 175.696C147.86 176.076 150.868 176.121 153.007 176.071C154.076 176.046 154.931 175.998 155.522 175.954C155.817 175.933 156.047 175.913 156.206 175.898C156.285 175.89 156.346 175.884 156.389 175.88C156.41 175.877 156.427 175.876 156.439 175.874C156.445 175.874 156.45 175.873 156.453 175.873C156.455 175.872 156.457 175.872 156.458 175.872C156.458 175.872 156.459 175.872 156.459 175.872C156.46 175.872 156.46 175.872 156.289 174.382C156.118 172.891 156.118 172.891 156.119 172.891C156.119 172.891 156.119 172.891 156.119 172.891C156.119 172.891 156.119 172.891 156.118 172.891C156.117 172.892 156.114 172.892 156.111 172.892C156.104 172.893 156.092 172.894 156.076 172.896C156.043 172.899 155.992 172.905 155.923 172.911C155.785 172.924 155.577 172.943 155.304 172.962C154.757 173.002 153.953 173.048 152.937 173.072C150.903 173.12 148.03 173.076 144.689 172.713C137.989 171.985 129.514 169.979 122.154 164.933L120.458 167.408Z" fill="#059E83"/>
<path d="M140.6 117.857C141.385 118.121 142.235 117.698 142.499 116.912C142.763 116.127 142.34 115.277 141.555 115.013L140.6 117.857ZM123.517 95.6768C123.928 97.1193 123.928 97.1194 123.928 97.1195C123.928 97.1195 123.928 97.1195 123.928 97.1194C123.928 97.1194 123.929 97.1192 123.93 97.1188C123.932 97.1182 123.936 97.1172 123.941 97.1157C123.952 97.1127 123.968 97.108 123.991 97.1017C124.037 97.089 124.107 97.0699 124.201 97.045C124.388 96.9953 124.667 96.9227 125.031 96.8335C125.757 96.655 126.818 96.4102 128.14 96.1488C130.787 95.6256 134.469 95.0387 138.61 94.7816C146.963 94.2629 156.866 95.1082 164.007 100.176L165.743 97.7294C157.741 92.0498 146.965 91.257 138.424 91.7873C134.118 92.0547 130.3 92.6639 127.559 93.2058C126.187 93.4769 125.081 93.7319 124.315 93.92C123.932 94.0141 123.634 94.0915 123.429 94.146C123.327 94.1732 123.248 94.1947 123.194 94.2097C123.167 94.2172 123.146 94.223 123.131 94.2272C123.123 94.2292 123.118 94.2308 123.113 94.232C123.111 94.2326 123.11 94.2331 123.108 94.2335C123.108 94.2337 123.107 94.2339 123.107 94.2339C123.106 94.2341 123.106 94.2342 123.517 95.6768ZM164.007 100.176C178.582 110.52 181.515 129.901 169.896 140.942L171.963 143.117C185.287 130.456 181.456 108.881 165.743 97.7294L164.007 100.176ZM169.896 140.942C158.046 152.202 143.331 149.576 135.94 144.331L134.203 146.777C142.518 152.678 158.869 155.559 171.963 143.117L169.896 140.942ZM135.94 144.331C132.366 141.795 129.889 137.599 128.986 133.266C128.078 128.915 128.807 124.713 131.225 122.005L128.987 120.007C125.734 123.65 125.018 128.937 126.049 133.878C127.083 138.838 129.924 143.74 134.203 146.777L135.94 144.331ZM131.225 122.005C133.843 119.074 136.284 118.107 137.972 117.817C138.83 117.67 139.525 117.693 139.988 117.746C140.22 117.773 140.393 117.807 140.499 117.832C140.551 117.844 140.587 117.854 140.604 117.859C140.613 117.861 140.617 117.862 140.616 117.862C140.616 117.862 140.614 117.862 140.611 117.861C140.61 117.86 140.608 117.86 140.606 117.859C140.605 117.859 140.604 117.858 140.603 117.858C140.603 117.858 140.602 117.858 140.601 117.857C140.601 117.857 140.6 117.857 141.077 116.435C141.555 115.013 141.554 115.013 141.553 115.012C141.552 115.012 141.551 115.012 141.551 115.012C141.549 115.011 141.548 115.011 141.546 115.01C141.543 115.009 141.539 115.008 141.535 115.006C141.527 115.004 141.518 115.001 141.507 114.998C141.486 114.991 141.46 114.983 141.428 114.974C141.365 114.956 141.281 114.934 141.178 114.91C140.972 114.862 140.686 114.807 140.333 114.766C139.625 114.684 138.641 114.659 137.465 114.86C135.086 115.269 132.041 116.587 128.987 120.007L131.225 122.005Z" fill="white"/>
<path d="M158.163 65.5618C158.163 65.5618 174.569 72.2357 183.305 79.1954C192.243 86.3159 202.559 101.23 202.559 101.23" stroke="white" stroke-width="3"/>
<path d="M179.896 54.9338C179.896 54.9338 191.518 55.0033 203.699 66.2309C215.881 77.4585 219.774 87.1978 219.774 87.1978" stroke="#059E83" stroke-width="3" stroke-linecap="round"/>
<circle cx="224.206" cy="97.1781" r="2" transform="rotate(-8 224.206 97.1781)" stroke="white" stroke-width="2"/>
<circle cx="227.856" cy="108.783" r="2.5" transform="rotate(-8 227.856 108.783)" fill="#9548D1" stroke="#9548D1"/>
<circle cx="229.077" cy="131.838" r="2.5" transform="rotate(-8 229.077 131.838)" fill="#059E83" stroke="#059E83"/>
<circle cx="50.0121" cy="204.97" r="2.5" transform="rotate(-8 50.0121 204.97)" fill="white"/>
<circle cx="57.7716" cy="213.473" r="2" transform="rotate(-8 57.7716 213.473)" fill="white"/>
<circle cx="43.6693" cy="195.763" r="2" transform="rotate(-8 43.6693 195.763)" fill="#059E83" stroke="#059E83"/>
<circle cx="38.3168" cy="186.417" r="2" transform="rotate(-8 38.3168 186.417)" fill="#9548D1" stroke="#9548D1"/>
<circle cx="33.8148" cy="175.942" r="2" transform="rotate(-8 33.8148 175.942)" fill="#9548D1" stroke="#9548D1"/>
<circle cx="30.1644" cy="164.337" r="2.5" transform="rotate(-8 30.1644 164.337)" fill="white"/>
<circle cx="27.5033" cy="152.593" r="2" transform="rotate(-8 27.5033 152.593)" fill="#059E83" stroke="#059E83"/>
<circle cx="26.8236" cy="140.571" r="2" transform="rotate(-8 26.8236 140.571)" fill="#9548D1" stroke="#9548D1"/>
<circle cx="27.1341" cy="128.409" r="2.5" transform="rotate(-8 27.1341 128.409)" fill="white"/>
<circle cx="28.5746" cy="117.099" r="2.5" transform="rotate(-8 28.5746 117.099)" fill="white"/>
<circle cx="31.1439" cy="106.639" r="2" transform="rotate(-8 31.1439 106.639)" fill="#059E83" stroke="#059E83"/>
<circle cx="34.7035" cy="96.0407" r="2.5" transform="rotate(-8 34.7035 96.0407)" fill="white"/>
<circle cx="39.2533" cy="85.303" r="2" transform="rotate(-8 39.2533 85.303)" fill="#9548D1" stroke="#9548D1"/>
<circle cx="45.9232" cy="75.2772" r="2.5" transform="rotate(-8 45.9232 75.2772)" fill="white"/>
<circle cx="53.722" cy="66.1025" r="2" transform="rotate(-8 53.722 66.1025)" fill="#059E83" stroke="#059E83"/>
<circle cx="62.3644" cy="59.3339" r="1.5" transform="rotate(-8 62.3644 59.3339)" fill="#059E83" stroke="#059E83"/>
<path d="M154.352 218.077C154.352 218.077 182.2 214.989 202.907 197.115C223.17 179.625 227.473 152.764 227.473 152.764" stroke="#059E83" stroke-width="3"/>
<circle cx="127.336" cy="33.0355" r="6.5" transform="rotate(-8 127.336 33.0355)" stroke="#059E83" stroke-width="3"/>
<circle cx="90.4662" cy="201.809" r="6.5" transform="rotate(-8 90.4662 201.809)" stroke="#059E83" stroke-width="3"/>
<circle cx="102.363" cy="131.974" r="5" transform="rotate(-8 102.363 131.974)" stroke="white" stroke-width="3"/>
<circle cx="150.39" cy="218.633" r="3.5" transform="rotate(-8 150.39 218.633)" stroke="#9548D1" stroke-width="3"/>
<circle cx="227.482" cy="149.229" r="3.5" transform="rotate(-8 227.482 149.229)" stroke="white" stroke-width="3"/>
<circle cx="203.967" cy="104.062" r="3.5" transform="rotate(-8 203.967 104.062)" stroke="#059E83" stroke-width="3"/>
<circle cx="173.418" cy="166.925" r="6.5" transform="rotate(-8 173.418 166.925)" stroke="#059E83" stroke-width="3"/>
<circle cx="114.669" cy="68.6451" r="5" transform="rotate(-8 114.669 68.6451)" stroke="white" stroke-width="3"/>
<circle cx="64.9437" cy="106.433" r="6.5" transform="rotate(-8 64.9437 106.433)" stroke="white" stroke-width="3"/>
<circle cx="117.428" cy="99.057" r="6.5" transform="rotate(-8 117.428 99.057)" stroke="#9548D1" stroke-width="3"/>
<circle cx="150.883" cy="64.0604" r="6.5" transform="rotate(-8 150.883 64.0604)" stroke="#9548D1" stroke-width="3"/>
</svg>
