<svg width="277" height="280" viewBox="0 0 277 280" fill="none" xmlns="http://www.w3.org/2000/svg">
<circle cx="188.695" cy="154.112" r="5" transform="rotate(-8 188.695 154.112)" stroke="black" stroke-width="3"/>
<circle cx="196.223" cy="139.421" r="3.5" transform="rotate(-8 196.223 139.421)" stroke="black" stroke-width="3"/>
<path d="M168.655 241.753C169.479 241.66 170.071 240.918 169.978 240.094C169.885 239.271 169.142 238.679 168.319 238.772L168.655 241.753ZM120.515 35.4458C120.115 34.0001 120.114 34.0004 120.113 34.0007C120.112 34.001 120.11 34.0015 120.108 34.002C120.105 34.0031 120.099 34.0045 120.093 34.0064C120.08 34.0101 120.061 34.0153 120.037 34.0223C119.988 34.0361 119.918 34.0563 119.826 34.0833C119.643 34.1371 119.375 34.2175 119.029 34.3258C118.336 34.5425 117.328 34.8709 116.056 35.322C113.51 36.2242 109.901 37.6179 105.624 39.5911C97.0742 43.5351 85.8247 49.807 75.054 59.1179C53.4616 77.7839 33.8464 108.64 41.6839 157.132L44.6454 156.654C37.003 109.368 56.063 79.5006 77.0159 61.3875C87.5178 52.3089 98.5085 46.1773 106.881 42.3152C111.064 40.3854 114.587 39.0254 117.058 38.1497C118.293 37.7119 119.265 37.3953 119.924 37.1891C120.254 37.0861 120.505 37.0106 120.672 36.9615C120.756 36.9369 120.819 36.9189 120.859 36.9073C120.88 36.9015 120.894 36.8973 120.904 36.8947C120.908 36.8934 120.912 36.8925 120.914 36.8919C120.915 36.8917 120.915 36.8916 120.915 36.8915C120.915 36.8915 120.915 36.8916 120.515 35.4458ZM41.6839 157.132C49.5413 205.748 81.4276 226.947 111.198 235.93C126.058 240.415 140.41 241.868 151.035 242.204C156.351 242.372 160.744 242.261 163.812 242.107C165.347 242.03 166.551 241.942 167.375 241.873C167.786 241.839 168.103 241.809 168.319 241.788C168.427 241.778 168.509 241.769 168.565 241.763C168.594 241.76 168.615 241.758 168.63 241.756C168.638 241.755 168.644 241.755 168.648 241.754C168.65 241.754 168.652 241.754 168.653 241.754C168.654 241.753 168.655 241.753 168.487 240.263C168.319 238.772 168.319 238.772 168.319 238.772C168.318 238.772 168.318 238.772 168.316 238.772C168.314 238.773 168.31 238.773 168.304 238.774C168.292 238.775 168.274 238.777 168.249 238.78C168.2 238.785 168.125 238.793 168.024 238.803C167.823 238.822 167.521 238.851 167.125 238.884C166.332 238.95 165.161 239.035 163.662 239.111C160.663 239.261 156.353 239.371 151.13 239.206C140.676 238.875 126.6 237.445 112.064 233.058C83.043 224.301 52.268 203.816 44.6454 156.654L41.6839 157.132Z" fill="black"/>
<path d="M61.79 113.377C61.79 113.377 51.4214 133.011 60.6953 159.478C69.9692 185.945 85.8508 198.356 85.8508 198.356" stroke="#9548D1" stroke-width="3"/>
<path d="M169.009 197.272L168.428 195.889L169.009 197.272ZM204.915 165.978C205.084 165.167 204.564 164.372 203.753 164.203C202.942 164.034 202.147 164.554 201.978 165.365L204.915 165.978ZM111.732 73.5389C110.923 72.2761 110.922 72.2765 110.921 72.2771C110.921 72.2774 110.92 72.278 110.918 72.2787C110.916 72.28 110.914 72.2818 110.91 72.284C110.903 72.2884 110.894 72.2946 110.882 72.3026C110.857 72.3185 110.822 72.3416 110.776 72.3716C110.685 72.4317 110.553 72.52 110.382 72.6361C110.04 72.8681 109.546 73.2113 108.924 73.6623C107.679 74.5641 105.921 75.8982 103.852 77.6386C99.7148 81.1169 94.3136 86.2327 89.2668 92.7806C79.1772 105.871 70.4082 124.828 76.2387 147.864L79.1469 147.128C73.6239 125.307 81.8746 107.286 91.643 94.612C96.5252 88.2776 101.763 83.3147 105.782 79.9348C107.79 78.2462 109.49 76.9564 110.684 76.0915C111.281 75.6592 111.75 75.3333 112.068 75.1172C112.227 75.0091 112.348 74.9285 112.428 74.8758C112.468 74.8494 112.498 74.83 112.517 74.8177C112.526 74.8115 112.533 74.807 112.537 74.8044C112.54 74.803 112.541 74.8021 112.542 74.8017C112.542 74.8015 112.542 74.8015 112.542 74.8013C112.542 74.8014 112.542 74.8016 111.732 73.5389ZM76.2387 147.864C87.8187 193.616 135.653 212.903 169.59 198.655L168.428 195.889C136.172 209.431 90.2738 191.089 79.1469 147.128L76.2387 147.864ZM169.59 198.655C185.078 192.152 193.902 184.093 198.864 177.576C201.341 174.322 202.845 171.466 203.734 169.401C204.179 168.368 204.469 167.534 204.651 166.948C204.742 166.654 204.805 166.423 204.847 166.259C204.868 166.177 204.884 166.112 204.895 166.065C204.901 166.042 204.905 166.023 204.908 166.008C204.91 166.001 204.911 165.995 204.912 165.99C204.913 165.987 204.913 165.985 204.913 165.983C204.914 165.982 204.914 165.981 204.914 165.98C204.914 165.979 204.915 165.978 203.446 165.671C201.978 165.365 201.978 165.364 201.978 165.363C201.978 165.363 201.978 165.362 201.979 165.362C201.979 165.361 201.979 165.36 201.979 165.36C201.979 165.36 201.979 165.36 201.978 165.362C201.978 165.366 201.976 165.374 201.973 165.386C201.967 165.411 201.957 165.453 201.942 165.512C201.912 165.63 201.861 165.815 201.785 166.06C201.633 166.551 201.379 167.285 200.979 168.214C200.179 170.072 198.795 172.714 196.477 175.759C191.848 181.839 183.455 189.58 168.428 195.889L169.59 198.655Z" fill="#9548D1"/>
<path d="M236.167 185.05C235.853 185.817 236.22 186.693 236.987 187.007C237.754 187.321 238.63 186.953 238.943 186.187L236.167 185.05ZM245.697 150.14L247.17 150.42L245.697 150.14ZM237.555 185.619C238.943 186.187 238.944 186.186 238.944 186.185C238.944 186.185 238.944 186.185 238.944 186.184C238.945 186.183 238.945 186.182 238.946 186.181C238.947 186.179 238.948 186.176 238.949 186.173C238.951 186.167 238.954 186.159 238.958 186.15C238.966 186.131 238.975 186.105 238.988 186.073C239.013 186.008 239.047 185.914 239.092 185.788C239.182 185.537 239.312 185.154 239.483 184.611C239.825 183.524 240.334 181.786 241.012 179.146C242.369 173.868 244.411 164.966 247.17 150.42L244.223 149.861C241.472 164.365 239.443 173.201 238.107 178.4C237.439 180.998 236.945 182.683 236.621 183.71C236.46 184.223 236.341 184.57 236.266 184.783C236.228 184.89 236.2 184.963 236.184 185.006C236.176 185.027 236.17 185.042 236.167 185.049C236.166 185.053 236.165 185.055 236.165 185.055C236.165 185.055 236.165 185.055 236.165 185.054C236.166 185.053 236.166 185.053 236.166 185.052C236.166 185.052 236.166 185.052 236.166 185.052C236.167 185.051 236.167 185.05 237.555 185.619ZM247.17 150.42C249.488 138.201 246.35 129.898 240.023 124.548C233.828 119.31 224.826 117.124 215.826 116.442C206.781 115.755 197.488 116.57 190.483 117.546C186.975 118.035 184.027 118.567 181.953 118.977C180.916 119.182 180.097 119.357 179.535 119.481C179.255 119.543 179.038 119.592 178.89 119.626C178.817 119.643 178.76 119.657 178.722 119.666C178.702 119.67 178.688 119.674 178.677 119.676C178.672 119.678 178.668 119.678 178.666 119.679C178.664 119.68 178.663 119.68 178.662 119.68C178.661 119.68 178.66 119.68 179.011 121.139C179.362 122.597 179.362 122.597 179.362 122.597C179.363 122.597 179.363 122.597 179.364 122.597C179.366 122.596 179.369 122.596 179.373 122.595C179.381 122.593 179.394 122.59 179.411 122.586C179.445 122.578 179.497 122.565 179.566 122.549C179.704 122.518 179.911 122.47 180.182 122.411C180.724 122.291 181.521 122.121 182.535 121.92C184.563 121.519 187.455 120.998 190.897 120.518C197.796 119.556 206.853 118.77 215.599 119.433C224.389 120.1 232.618 122.215 238.086 126.839C243.424 131.353 246.382 138.477 244.223 149.861L247.17 150.42Z" fill="black"/>
<path d="M180.432 55.8051L171.132 72.2596" stroke="#059E83" stroke-width="3"/>
<path d="M236.764 186.893C237.468 187.33 238.393 187.113 238.829 186.409C239.266 185.705 239.049 184.78 238.345 184.344L236.764 186.893ZM238.345 184.344L221.751 174.053L220.17 176.603L236.764 186.893L238.345 184.344Z" fill="black"/>
<path d="M62.3118 163.795L80.779 158.675" stroke="#9548D1" stroke-width="3"/>
<path d="M156.998 176.743C157.821 176.648 158.411 175.905 158.317 175.082C158.222 174.259 157.478 173.668 156.655 173.763L156.998 176.743ZM103.734 138.787C102.253 139.023 102.253 139.023 102.253 139.024C102.253 139.024 102.253 139.025 102.254 139.026C102.254 139.027 102.254 139.028 102.254 139.03C102.255 139.034 102.256 139.039 102.257 139.044C102.259 139.056 102.261 139.072 102.265 139.092C102.271 139.132 102.281 139.188 102.295 139.261C102.322 139.406 102.362 139.615 102.418 139.882C102.531 140.415 102.709 141.18 102.969 142.127C103.49 144.019 104.347 146.645 105.694 149.607C108.384 155.523 113.062 162.84 120.995 168.279L122.691 165.805C115.345 160.768 110.969 153.958 108.425 148.365C107.154 145.572 106.349 143.099 105.862 141.33C105.618 140.447 105.455 139.741 105.353 139.261C105.303 139.021 105.267 138.838 105.245 138.717C105.234 138.657 105.226 138.613 105.222 138.585C105.219 138.571 105.217 138.561 105.217 138.555C105.216 138.553 105.216 138.551 105.216 138.55C105.216 138.55 105.216 138.55 105.216 138.55C105.216 138.55 105.216 138.55 105.216 138.55C105.216 138.551 105.216 138.551 103.734 138.787ZM120.995 168.279C128.913 173.708 137.93 175.809 144.902 176.567C148.397 176.947 151.405 176.992 153.544 176.943C154.614 176.918 155.468 176.869 156.059 176.826C156.354 176.804 156.584 176.784 156.743 176.769C156.822 176.762 156.883 176.755 156.926 176.751C156.947 176.749 156.964 176.747 156.976 176.745C156.982 176.745 156.987 176.744 156.99 176.744C156.992 176.744 156.994 176.744 156.995 176.743C156.996 176.743 156.996 176.743 156.996 176.743C156.997 176.743 156.998 176.743 156.826 175.253C156.655 173.763 156.655 173.763 156.656 173.763C156.656 173.763 156.656 173.763 156.656 173.763C156.656 173.763 156.656 173.763 156.655 173.763C156.654 173.763 156.652 173.763 156.648 173.763C156.641 173.764 156.629 173.766 156.613 173.767C156.58 173.771 156.529 173.776 156.46 173.782C156.322 173.795 156.114 173.814 155.841 173.834C155.295 173.874 154.49 173.92 153.474 173.943C151.44 173.991 148.567 173.948 145.226 173.584C138.526 172.856 130.051 170.851 122.691 165.805L120.995 168.279Z" fill="#059E83"/>
<path d="M141.137 118.728C141.922 118.992 142.772 118.569 143.036 117.784C143.3 116.998 142.877 116.148 142.092 115.884L141.137 118.728ZM124.054 96.5481C124.465 97.9906 124.465 97.9907 124.465 97.9908C124.465 97.9907 124.465 97.9908 124.465 97.9907C124.465 97.9906 124.466 97.9904 124.467 97.9901C124.469 97.9895 124.473 97.9885 124.478 97.987C124.489 97.984 124.506 97.9793 124.528 97.973C124.574 97.9603 124.645 97.9412 124.738 97.9163C124.925 97.8666 125.204 97.794 125.568 97.7047C126.294 97.5262 127.355 97.2815 128.677 97.0201C131.325 96.4969 135.007 95.9099 139.147 95.6528C147.5 95.1342 157.404 95.9794 164.544 101.047L166.281 98.6007C158.278 92.921 147.502 92.1283 138.961 92.6586C134.655 92.926 130.837 93.5352 128.096 94.077C126.724 94.3482 125.618 94.6032 124.852 94.7913C124.469 94.8854 124.171 94.9628 123.966 95.0173C123.864 95.0445 123.785 95.066 123.731 95.081C123.704 95.0885 123.683 95.0943 123.668 95.0984C123.661 95.1005 123.655 95.1021 123.651 95.1033C123.648 95.1039 123.647 95.1044 123.645 95.1048C123.645 95.1049 123.644 95.1051 123.644 95.1052C123.643 95.1054 123.643 95.1055 124.054 96.5481ZM164.544 101.047C179.119 111.391 182.052 130.772 170.433 141.813L172.5 143.988C185.824 131.327 181.993 109.752 166.281 98.6007L164.544 101.047ZM170.433 141.813C158.584 153.073 143.868 150.447 136.477 145.202L134.741 147.649C143.055 153.549 159.406 156.43 172.5 143.988L170.433 141.813ZM136.477 145.202C132.903 142.666 130.426 138.47 129.523 134.137C128.615 129.786 129.344 125.585 131.762 122.877L129.524 120.878C126.271 124.522 125.556 129.808 126.586 134.749C127.62 139.71 130.461 144.612 134.741 147.649L136.477 145.202ZM131.762 122.877C134.38 119.945 136.821 118.978 138.509 118.689C139.367 118.541 140.062 118.564 140.526 118.617C140.757 118.644 140.93 118.679 141.036 118.703C141.089 118.715 141.124 118.725 141.141 118.73C141.15 118.732 141.154 118.734 141.153 118.733C141.153 118.733 141.151 118.733 141.149 118.732C141.147 118.732 141.146 118.731 141.144 118.73C141.143 118.73 141.142 118.73 141.14 118.729C141.14 118.729 141.139 118.729 141.139 118.729C141.138 118.728 141.137 118.728 141.614 117.306C142.092 115.884 142.091 115.884 142.09 115.884C142.089 115.883 142.088 115.883 142.088 115.883C142.086 115.882 142.085 115.882 142.083 115.881C142.08 115.88 142.076 115.879 142.072 115.878C142.064 115.875 142.055 115.872 142.045 115.869C142.023 115.862 141.997 115.854 141.965 115.845C141.902 115.827 141.818 115.805 141.715 115.781C141.509 115.733 141.223 115.678 140.87 115.637C140.162 115.555 139.178 115.53 138.002 115.732C135.623 116.14 132.578 117.458 129.524 120.878L131.762 122.877Z" fill="black"/>
<path d="M158.7 66.4331C158.7 66.4331 175.106 73.107 183.842 80.0667C192.78 87.1872 203.096 102.101 203.096 102.101" stroke="black" stroke-width="3"/>
<path d="M180.433 55.8051C180.433 55.8051 192.055 55.8746 204.237 67.1022C216.418 78.3298 220.311 88.0691 220.311 88.0691" stroke="#059E83" stroke-width="3" stroke-linecap="round"/>
<circle cx="224.743" cy="98.0494" r="2" transform="rotate(-8 224.743 98.0494)" stroke="black" stroke-width="2"/>
<circle cx="228.393" cy="109.654" r="2.5" transform="rotate(-8 228.393 109.654)" fill="#9548D1" stroke="#9548D1"/>
<circle cx="229.614" cy="132.709" r="2.5" transform="rotate(-8 229.614 132.709)" fill="#059E83" stroke="#059E83"/>
<circle cx="50.5492" cy="205.842" r="2.5" transform="rotate(-8 50.5492 205.842)" fill="black"/>
<circle cx="58.3087" cy="214.344" r="2" transform="rotate(-8 58.3087 214.344)" fill="black"/>
<circle cx="44.2064" cy="196.635" r="2" transform="rotate(-8 44.2064 196.635)" fill="#059E83" stroke="#059E83"/>
<circle cx="38.8539" cy="187.289" r="2" transform="rotate(-8 38.8539 187.289)" fill="#9548D1" stroke="#9548D1"/>
<circle cx="34.3519" cy="176.813" r="2" transform="rotate(-8 34.3519 176.813)" fill="#9548D1" stroke="#9548D1"/>
<circle cx="30.7015" cy="165.208" r="2.5" transform="rotate(-8 30.7015 165.208)" fill="black"/>
<circle cx="28.0404" cy="153.464" r="2" transform="rotate(-8 28.0404 153.464)" fill="#059E83" stroke="#059E83"/>
<circle cx="27.3607" cy="141.442" r="2" transform="rotate(-8 27.3607 141.442)" fill="#9548D1" stroke="#9548D1"/>
<circle cx="27.6713" cy="129.28" r="2.5" transform="rotate(-8 27.6713 129.28)" fill="black"/>
<circle cx="29.1117" cy="117.97" r="2.5" transform="rotate(-8 29.1117 117.97)" fill="black"/>
<circle cx="31.681" cy="107.511" r="2" transform="rotate(-8 31.681 107.511)" fill="#059E83" stroke="#059E83"/>
<circle cx="35.2406" cy="96.912" r="2.5" transform="rotate(-8 35.2406 96.912)" fill="black"/>
<circle cx="39.7904" cy="86.1743" r="2" transform="rotate(-8 39.7904 86.1743)" fill="#9548D1" stroke="#9548D1"/>
<circle cx="46.4603" cy="76.1485" r="2.5" transform="rotate(-8 46.4603 76.1485)" fill="black"/>
<circle cx="54.2592" cy="66.9738" r="2" transform="rotate(-8 54.2592 66.9738)" fill="#059E83" stroke="#059E83"/>
<circle cx="62.9015" cy="60.2052" r="1.5" transform="rotate(-8 62.9015 60.2052)" fill="#059E83" stroke="#059E83"/>
<path d="M154.889 218.948C154.889 218.948 182.737 215.86 203.444 197.986C223.707 180.496 228.011 153.636 228.011 153.636" stroke="#059E83" stroke-width="3"/>
<circle cx="127.873" cy="33.9068" r="6.5" transform="rotate(-8 127.873 33.9068)" stroke="#059E83" stroke-width="3"/>
<circle cx="91.0033" cy="202.681" r="6.5" transform="rotate(-8 91.0033 202.681)" stroke="#059E83" stroke-width="3"/>
<circle cx="102.9" cy="132.845" r="5" transform="rotate(-8 102.9 132.845)" stroke="black" stroke-width="3"/>
<circle cx="150.927" cy="219.505" r="3.5" transform="rotate(-8 150.927 219.505)" stroke="#9548D1" stroke-width="3"/>
<circle cx="228.019" cy="150.1" r="3.5" transform="rotate(-8 228.019 150.1)" stroke="black" stroke-width="3"/>
<circle cx="204.504" cy="104.933" r="3.5" transform="rotate(-8 204.504 104.933)" stroke="#059E83" stroke-width="3"/>
<circle cx="173.955" cy="167.796" r="6.5" transform="rotate(-8 173.955 167.796)" stroke="#059E83" stroke-width="3"/>
<circle cx="115.206" cy="69.5163" r="5" transform="rotate(-8 115.206 69.5163)" stroke="black" stroke-width="3"/>
<circle cx="65.4808" cy="107.304" r="6.5" transform="rotate(-8 65.4808 107.304)" stroke="black" stroke-width="3"/>
<circle cx="117.965" cy="99.9283" r="6.5" transform="rotate(-8 117.965 99.9283)" stroke="#9548D1" stroke-width="3"/>
<circle cx="151.42" cy="64.9317" r="6.5" transform="rotate(-8 151.42 64.9317)" stroke="#9548D1" stroke-width="3"/>
</svg>
